<svg width="18" height="19" viewBox="0 0 18 19" fill="none" xmlns="http://www.w3.org/2000/svg">
<path d="M16.7284 14.8482L16.7311 14.8506C16.7371 14.8558 16.7418 14.8623 16.7451 14.8694C16.7483 14.8765 16.7499 14.8842 16.75 14.8919C16.75 14.892 16.75 14.8922 16.75 14.8923L16.75 15.6472C16.75 15.662 16.7442 15.6761 16.7337 15.6865C16.7233 15.6969 16.7092 15.7028 16.6945 15.7028H1.25001C1.23528 15.7028 1.22115 15.6969 1.21073 15.6865C1.20031 15.6761 1.19446 15.662 1.19446 15.6472V14.8922C1.19449 14.8843 1.19618 14.8766 1.19941 14.8694C1.20267 14.8623 1.20742 14.8558 1.21335 14.8506L1.21339 14.8507L1.21935 14.8453C1.78023 14.3363 2.27057 13.7546 2.67734 13.1158L2.69 13.0959L2.70074 13.0749C3.15648 12.1837 3.42964 11.2104 3.50418 10.2122L3.50557 10.1936V10.175L3.50557 7.43056L3.50557 7.42955C3.50288 6.09805 3.98283 4.8107 4.85651 3.80592C5.73018 2.80114 6.9384 2.14703 8.25736 1.96474L8.6889 1.90509V1.46944V0.741667C8.6889 0.677573 8.71436 0.616104 8.75968 0.570783C8.80501 0.525461 8.86648 0.5 8.93057 0.5C8.99466 0.5 9.05613 0.525461 9.10145 0.570783C9.14677 0.616104 9.17224 0.677573 9.17224 0.741667V1.45833V1.89852L9.60887 1.9543C10.9398 2.12434 12.1627 2.77452 13.0481 3.78268C13.9334 4.79085 14.4201 6.0876 14.4167 7.4293V7.43056V10.175V10.1936L14.4181 10.2122C14.4926 11.2104 14.7658 12.1837 15.2215 13.0749L15.233 13.0974L15.2468 13.1187C15.6609 13.7591 16.1592 14.3408 16.7284 14.8482Z" fill="#F7941D" stroke="#F7941D"/>
<path d="M14.3216 13.6918C14.5188 14.0043 14.734 14.3048 14.9658 14.5917H2.98419C3.21605 14.3048 3.43119 14.0043 3.6284 13.6918L3.63814 13.6764L3.64673 13.6603C4.2165 12.5921 4.54894 11.4134 4.62133 10.2049L4.62223 10.1899V10.175V7.43054V7.42208L4.62194 7.41363C4.60218 6.82958 4.70015 6.24753 4.91001 5.70214C5.11987 5.15674 5.43734 4.65916 5.84351 4.23901C6.24969 3.81886 6.73625 3.48474 7.27424 3.25655C7.81222 3.02836 8.39063 2.91077 8.97501 2.91077C9.55939 2.91077 10.1378 3.02836 10.6758 3.25655C11.2138 3.48474 11.7003 3.81886 12.1065 4.23901C12.5127 4.65916 12.8301 5.15674 13.04 5.70214C13.2499 6.24754 13.3478 6.82959 13.3281 7.41363L13.3278 7.42208V7.43054V10.175V10.1899L13.3287 10.2049C13.4011 11.4134 13.7335 12.5921 14.3033 13.6603L14.3119 13.6764L14.3216 13.6918Z" fill="#F7941D" stroke="#F7941D"/>
<path d="M8.305 17.2916H9.63948C9.63207 17.2986 9.62455 17.3054 9.61692 17.3122C9.44356 17.4654 9.22176 17.5525 8.99054 17.5584C8.75294 17.5613 8.5223 17.4781 8.34129 17.3241C8.3289 17.3135 8.3168 17.3027 8.305 17.2916Z" fill="#111111" stroke="#111111"/>
<rect x="10" y="1" width="6" height="6" rx="3" fill="white"/>
<rect x="11" y="1" width="5" height="5" rx="2.5" fill="#111111"/>
</svg>
