<svg width="50" height="50" viewBox="0 0 50 50" fill="none" xmlns="http://www.w3.org/2000/svg">
<rect width="50" height="50" rx="25" fill="#C4C4C4"/>
<path d="M23.098 31.378C22.714 31.366 22.45 31.21 22.306 30.91C22.162 30.61 22.09 30.292 22.09 29.956C22.09 29.56 22.18 29.158 22.36 28.75C22.552 28.33 22.78 27.922 23.044 27.526C23.32 27.118 23.59 26.728 23.854 26.356C24.49 25.468 25.06 24.7 25.564 24.052C26.068 23.404 26.524 22.834 26.932 22.342C26.8 22.414 26.578 22.564 26.266 22.792C25.954 23.008 25.612 23.254 25.24 23.53C24.88 23.806 24.538 24.052 24.214 24.268C23.902 24.484 23.668 24.616 23.512 24.664C23.5 24.664 23.488 24.67 23.476 24.682C23.464 24.682 23.452 24.682 23.44 24.682C23.392 24.682 23.368 24.658 23.368 24.61C23.368 24.55 23.386 24.484 23.422 24.412C23.47 24.34 23.512 24.286 23.548 24.25C23.716 24.13 23.986 23.932 24.358 23.656C24.73 23.38 25.144 23.068 25.6 22.72C26.056 22.372 26.5 22.036 26.932 21.712C27.364 21.376 27.736 21.106 28.048 20.902C28.36 20.686 28.546 20.578 28.606 20.578C28.714 20.578 28.846 20.62 29.002 20.704C29.158 20.776 29.296 20.866 29.416 20.974C29.536 21.082 29.596 21.196 29.596 21.316C29.596 21.424 29.578 21.52 29.542 21.604C29.518 21.688 29.446 21.802 29.326 21.946C29.218 22.09 29.038 22.306 28.786 22.594L28.354 23.08C28.474 22.936 28.57 22.828 28.642 22.756C28.714 22.672 28.744 22.636 28.732 22.648C28.552 22.756 28.324 22.96 28.048 23.26C27.772 23.548 27.508 23.848 27.256 24.16C27.016 24.436 26.722 24.784 26.374 25.204C26.026 25.624 25.66 26.08 25.276 26.572C24.904 27.064 24.55 27.562 24.214 28.066C23.878 28.558 23.602 29.032 23.386 29.488C23.17 29.932 23.056 30.322 23.044 30.658C23.056 30.562 23.086 30.448 23.134 30.316C23.062 30.568 23.026 30.802 23.026 31.018C23.026 31.174 23.05 31.294 23.098 31.378ZM23.26 29.974C23.368 29.698 23.482 29.428 23.602 29.164C23.734 28.888 23.866 28.648 23.998 28.444C24.49 27.676 25.078 26.89 25.762 26.086C26.446 25.27 27.112 24.49 27.76 23.746C27.592 23.95 27.418 24.16 27.238 24.376C27.07 24.592 26.914 24.802 26.77 25.006C26.722 25.078 26.59 25.24 26.374 25.492C26.17 25.732 25.924 26.032 25.636 26.392C25.348 26.752 25.048 27.142 24.736 27.562C24.436 27.97 24.154 28.384 23.89 28.804C23.626 29.224 23.416 29.614 23.26 29.974Z" fill="white"/>
</svg>
