<svg width="28" height="29" viewBox="0 0 28 29" fill="none" xmlns="http://www.w3.org/2000/svg">
<path d="M24.749 22.9323C26.1851 21.2044 27.184 19.156 27.661 16.9604C28.1381 14.7649 28.0793 12.4867 27.4897 10.3187C26.9001 8.15063 25.797 6.15648 24.2737 4.50493C22.7504 2.85338 20.8517 1.59301 18.7383 0.830441C16.6248 0.0678713 14.3589 -0.174464 12.132 0.123936C9.90508 0.422336 7.78282 1.25269 5.94472 2.54476C4.10662 3.83683 2.60675 5.5526 1.57199 7.54693C0.537238 9.54126 -0.00196259 11.7555 5.36765e-06 14.0023C0.000760542 17.2684 1.15175 20.43 3.25101 22.9323L3.23101 22.9493C3.30101 23.0333 3.38101 23.1053 3.45301 23.1883C3.54301 23.2913 3.64001 23.3883 3.73301 23.4883C4.01301 23.7923 4.30101 24.0843 4.60301 24.3583C4.69501 24.4423 4.79001 24.5203 4.88301 24.6003C5.20301 24.8763 5.53201 25.1383 5.87301 25.3823C5.91701 25.4123 5.95701 25.4513 6.00101 25.4823V25.4703C8.34311 27.1184 11.1371 28.003 14.001 28.003C16.8649 28.003 19.6589 27.1184 22.001 25.4703V25.4823C22.045 25.4513 22.084 25.4123 22.129 25.3823C22.469 25.1373 22.799 24.8763 23.119 24.6003C23.212 24.5203 23.307 24.4413 23.399 24.3583C23.701 24.0833 23.989 23.7923 24.269 23.4883C24.362 23.3883 24.458 23.2913 24.549 23.1883C24.62 23.1053 24.701 23.0333 24.771 22.9483L24.749 22.9323Z" fill="#111111"/>
<path d="M14 6.0022C14.89 6.0022 15.76 6.26612 16.5001 6.76058C17.2401 7.25505 17.8169 7.95785 18.1575 8.78012C18.4981 9.60239 18.5872 10.5072 18.4135 11.3801C18.2399 12.253 17.8113 13.0548 17.182 13.6842C16.5526 14.3135 15.7508 14.7421 14.8779 14.9157C14.005 15.0894 13.1002 15.0002 12.2779 14.6597C11.4557 14.3191 10.7529 13.7423 10.2584 13.0023C9.76392 12.2622 9.5 11.3922 9.5 10.5022C9.5 9.30872 9.97411 8.16413 10.818 7.32022C11.6619 6.4763 12.8065 6.0022 14 6.0022Z" fill="#F7941D"/>
<path d="M6.00702 22.9322C6.02437 21.6192 6.55797 20.3658 7.49238 19.4431C8.42679 18.5205 9.68687 18.0029 11 18.0022H17C18.3132 18.0029 19.5733 18.5205 20.5077 19.4431C21.4421 20.3658 21.9757 21.6192 21.993 22.9322C19.7999 24.9085 16.9523 26.0023 14 26.0023C11.0478 26.0023 8.20018 24.9085 6.00702 22.9322Z" fill="#F7941D"/>
</svg>
