<svg width="20" height="20" viewBox="0 0 20 20" fill="none" xmlns="http://www.w3.org/2000/svg">
<mask id="path-1-inside-1_24_370" fill="white">
<path fill-rule="evenodd" clip-rule="evenodd" d="M13.4474 12.0699L19.9399 18.5624C19.959 18.5815 19.9741 18.6041 19.9844 18.6289C19.9947 18.6538 20 18.6805 20 18.7074C20 18.7343 19.9947 18.761 19.9844 18.7859C19.9741 18.8108 19.959 18.8334 19.9399 18.8524L18.8499 19.9399C18.8309 19.959 18.8083 19.9741 18.7834 19.9844C18.7585 19.9947 18.7318 20 18.7049 20C18.678 20 18.6513 19.9947 18.6264 19.9844C18.6016 19.9741 18.579 19.959 18.5599 19.9399L12.0674 13.4499C10.765 14.4549 9.17496 14.9999 7.49997 14.9999C5.49498 14.9999 3.61248 14.2199 2.19749 12.8024C0.782496 11.3874 0 9.50246 0 7.49997C0 5.49498 0.779996 3.61248 2.19749 2.19749C3.61248 0.782496 5.49748 0 7.49997 0C9.50246 0 11.3874 0.779996 12.8024 2.19749C14.2174 3.61498 14.9999 5.49498 14.9999 7.49997C14.9999 9.17496 14.4549 10.7675 13.4474 12.0699ZM7.49997 13.0999C8.99496 13.0999 10.4 12.5174 11.46 11.4599C12.5174 10.4024 13.0999 8.99495 13.0999 7.49996C13.0999 6.00497 12.5174 4.59997 11.46 3.53998C10.4025 2.47998 8.99496 1.89998 7.49997 1.89998C6.00497 1.89998 4.59998 2.48248 3.53999 3.53998C2.48249 4.59747 1.89999 6.00497 1.89999 7.49996C1.89999 8.99495 2.48249 10.3999 3.53999 11.4599C4.59998 12.5174 6.00497 13.0999 7.49997 13.0999Z"/>
</mask>
<path fill-rule="evenodd" clip-rule="evenodd" d="M13.4474 12.0699L19.9399 18.5624C19.959 18.5815 19.9741 18.6041 19.9844 18.6289C19.9947 18.6538 20 18.6805 20 18.7074C20 18.7343 19.9947 18.761 19.9844 18.7859C19.9741 18.8108 19.959 18.8334 19.9399 18.8524L18.8499 19.9399C18.8309 19.959 18.8083 19.9741 18.7834 19.9844C18.7585 19.9947 18.7318 20 18.7049 20C18.678 20 18.6513 19.9947 18.6264 19.9844C18.6016 19.9741 18.579 19.959 18.5599 19.9399L12.0674 13.4499C10.765 14.4549 9.17496 14.9999 7.49997 14.9999C5.49498 14.9999 3.61248 14.2199 2.19749 12.8024C0.782496 11.3874 0 9.50246 0 7.49997C0 5.49498 0.779996 3.61248 2.19749 2.19749C3.61248 0.782496 5.49748 0 7.49997 0C9.50246 0 11.3874 0.779996 12.8024 2.19749C14.2174 3.61498 14.9999 5.49498 14.9999 7.49997C14.9999 9.17496 14.4549 10.7675 13.4474 12.0699ZM7.49997 13.0999C8.99496 13.0999 10.4 12.5174 11.46 11.4599C12.5174 10.4024 13.0999 8.99495 13.0999 7.49996C13.0999 6.00497 12.5174 4.59997 11.46 3.53998C10.4025 2.47998 8.99496 1.89998 7.49997 1.89998C6.00497 1.89998 4.59998 2.48248 3.53999 3.53998C2.48249 4.59747 1.89999 6.00497 1.89999 7.49996C1.89999 8.99495 2.48249 10.3999 3.53999 11.4599C4.59998 12.5174 6.00497 13.0999 7.49997 13.0999Z" fill="#F7941D"/>
<path d="M19.9399 18.5624L7.9191 30.5832L7.92211 30.5862L19.9399 18.5624ZM13.4474 12.0699L0.000701092 1.66874L-9.15668 13.5075L1.42663 24.0908L13.4474 12.0699ZM19.9844 18.6289L35.6895 12.1213L35.6891 12.1202L19.9844 18.6289ZM19.9844 18.7859L35.6891 25.2946L35.6895 25.2936L19.9844 18.7859ZM19.9399 18.8524L31.9469 30.887L31.952 30.8819L31.9571 30.8768L19.9399 18.8524ZM18.8499 19.9399L6.8429 7.90531L6.83449 7.9137L6.82609 7.92211L18.8499 19.9399ZM18.7834 19.9844L25.2911 35.6895L25.2921 35.6891L18.7834 19.9844ZM18.6264 19.9844L12.1177 35.6891L12.1188 35.6895L18.6264 19.9844ZM18.5599 19.9399L30.5843 7.92271L30.5784 7.91678L18.5599 19.9399ZM12.0674 13.4499L24.0859 1.42681L13.5155 -9.1396L1.6824 -0.00928225L12.0674 13.4499ZM2.19749 12.8024L14.2289 0.792243L14.2236 0.786934L14.2183 0.78163L2.19749 12.8024ZM2.19749 2.19749L14.2077 14.2289L14.213 14.2236L14.2183 14.2183L2.19749 2.19749ZM12.8024 2.19749L24.8339 -9.81271L24.8339 -9.81271L12.8024 2.19749ZM11.46 11.4599L23.4666 23.4949L23.4737 23.4879L23.4808 23.4808L11.46 11.4599ZM11.46 3.53998L-0.575049 15.5466L-0.575046 15.5466L11.46 3.53998ZM3.53999 3.53998L-8.46663 -8.49503L-8.47373 -8.48793L-8.48083 -8.48084L3.53999 3.53998ZM3.53999 11.4599L-8.49501 23.4666L-8.48084 23.4808L-8.46663 23.4949L3.53999 11.4599ZM31.9607 6.5416L25.4683 0.049132L1.42663 24.0908L7.9191 30.5832L31.9607 6.5416ZM35.6891 12.1202C34.824 10.0329 33.5562 8.13623 31.9577 6.53859L7.92211 30.5862C6.36177 29.0267 5.12415 27.1752 4.27971 25.1376L35.6891 12.1202ZM37 18.7074C37 16.4465 36.5544 14.2085 35.6895 12.1213L4.27928 25.1366C3.43501 23.0991 3 20.9145 3 18.7074H37ZM35.6895 25.2936C36.5544 23.2062 37 20.9683 37 18.7074H3C3 16.5004 3.43498 14.3158 4.27928 12.2782L35.6895 25.2936ZM31.9571 30.8768C33.5561 29.2788 34.824 27.3818 35.6891 25.2946L4.27971 12.2772C5.12413 10.2397 6.36184 8.38792 7.92271 6.82799L31.9571 30.8768ZM30.8569 31.9745L31.9469 30.887L7.9329 6.81782L6.8429 7.90531L30.8569 31.9745ZM25.2921 35.6891C27.3794 34.824 29.2761 33.5562 30.8737 31.9577L6.82609 7.92211C8.38565 6.36177 10.2372 5.12415 12.2747 4.27971L25.2921 35.6891ZM18.7049 37C20.9659 37 23.2038 36.5544 25.2911 35.6895L12.2757 4.27928C14.3132 3.43501 16.4978 3 18.7049 3V37ZM12.1188 35.6895C14.2061 36.5544 16.444 37 18.7049 37V3C20.9119 3 23.0966 3.43498 25.1341 4.27928L12.1188 35.6895ZM6.53549 31.9571C8.1335 33.5561 10.0305 34.824 12.1177 35.6891L25.1351 4.27971C27.1726 5.12413 29.0244 6.36184 30.5843 7.92271L6.53549 31.9571ZM0.048947 25.4731L6.54142 31.963L30.5784 7.91678L24.0859 1.42681L0.048947 25.4731ZM7.49997 31.9999C12.9175 31.9999 18.1627 30.2191 22.4525 26.9092L1.6824 -0.00928225C3.36721 -1.30927 5.43241 -2.00007 7.49997 -2.00007V31.9999ZM-9.83393 24.8126C-5.22514 29.4296 0.987917 31.9999 7.49997 31.9999V-2.00007C10.002 -2.00007 12.4501 -0.989698 14.2289 0.792243L-9.83393 24.8126ZM-17 7.49997C-17 14.0194 -14.4206 20.226 -9.82333 24.8233L14.2183 0.78163C15.9856 2.5489 17 4.98551 17 7.49997H-17ZM-9.81271 -9.83393C-14.4296 -5.22514 -17 0.98792 -17 7.49997H17C17 10.002 15.9896 12.4501 14.2077 14.2289L-9.81271 -9.83393ZM7.49997 -17C0.980527 -17 -5.22606 -14.4206 -9.82333 -9.82333L14.2183 14.2183C12.451 15.9856 10.0144 17 7.49997 17V-17ZM24.8339 -9.81271C20.2229 -14.4318 14.0065 -17 7.49997 -17V17C4.99842 17 2.55195 15.9918 0.771025 14.2077L24.8339 -9.81271ZM31.9999 7.49997C31.9999 0.966384 29.4127 -5.22578 24.8339 -9.81271L0.771021 14.2077C-0.97783 12.4557 -2.00007 10.0236 -2.00007 7.49997H31.9999ZM26.8942 22.4712C30.2216 18.1694 31.9999 12.9129 31.9999 7.49997H-2.00007C-2.00007 5.43705 -1.31174 3.36547 0.000701092 1.66874L26.8942 22.4712ZM-0.546672 -0.575049C1.56937 -2.6861 4.47782 -3.90006 7.49997 -3.90006V30.0999C13.5121 30.0999 19.2305 27.721 23.4666 23.4949L-0.546672 -0.575049ZM-3.90006 7.49996C-3.90006 4.48937 -2.69368 1.57194 -0.560859 -0.560878L23.4808 23.4808C27.7286 19.233 30.0999 13.5005 30.0999 7.49996H-3.90006ZM-0.575046 15.5466C-2.68609 13.4306 -3.90006 10.5221 -3.90006 7.49996H30.0999C30.0999 1.48782 27.721 -4.23062 23.4949 -8.46664L-0.575046 15.5466ZM7.49997 18.9C4.5067 18.9 1.576 17.7027 -0.575049 15.5466L23.4949 -8.46664C19.2289 -12.7428 13.4832 -15.1 7.49997 -15.1V18.9ZM15.5466 15.575C13.4306 17.686 10.5221 18.9 7.49997 18.9V-15.1C1.48782 -15.1 -4.23061 -12.721 -8.46663 -8.49503L15.5466 15.575ZM18.9 7.49996C18.9 10.5106 17.6936 13.428 15.5608 15.5608L-8.48083 -8.48084C-12.7286 -4.23304 -15.1 1.49937 -15.1 7.49996H18.9ZM15.575 -0.546674C17.686 1.56936 18.9 4.47781 18.9 7.49996H-15.1C-15.1 13.5121 -12.721 19.2305 -8.49501 23.4666L15.575 -0.546674ZM7.49997 -3.90006C10.5221 -3.90006 13.4306 -2.6861 15.5466 -0.575054L-8.46663 23.4949C-4.23061 27.721 1.48783 30.0999 7.49997 30.0999V-3.90006Z" fill="black" mask="url(#path-1-inside-1_24_370)"/>
</svg>
