<svg width="50" height="50" viewBox="0 0 50 50" fill="none" xmlns="http://www.w3.org/2000/svg">
<rect width="50" height="50" rx="25" fill="#C4C4C4"/>
<path d="M23.98 31.072C23.404 31.072 22.93 30.94 22.558 30.676C22.186 30.412 22 30.064 22 29.632C22 29.404 22.03 29.242 22.09 29.146C22.15 29.038 22.216 28.984 22.288 28.984C22.432 28.984 22.528 29.08 22.576 29.272C22.66 29.524 22.798 29.704 22.99 29.812C23.182 29.92 23.41 29.974 23.674 29.974C24.094 29.974 24.568 29.866 25.096 29.65C25.636 29.422 26.11 29.194 26.518 28.966C27.118 28.618 27.556 28.312 27.832 28.048C28.108 27.784 28.246 27.556 28.246 27.364C28.246 27.076 27.97 26.866 27.418 26.734C26.866 26.602 26.128 26.536 25.204 26.536C25.084 26.512 24.976 26.422 24.88 26.266C24.796 26.11 24.754 25.954 24.754 25.798C24.934 25.774 25.198 25.708 25.546 25.6C25.906 25.48 26.308 25.33 26.752 25.15C27.196 24.97 27.628 24.79 28.048 24.61C28.48 24.418 28.858 24.238 29.182 24.07C29.518 23.902 29.752 23.776 29.884 23.692C30.16 23.5 30.388 23.284 30.568 23.044C30.748 22.792 30.838 22.57 30.838 22.378C30.838 22.222 30.772 22.096 30.64 22C30.508 21.892 30.298 21.838 30.01 21.838C29.674 21.838 29.236 21.916 28.696 22.072C28.18 22.228 27.724 22.438 27.328 22.702C26.932 22.954 26.596 23.188 26.32 23.404C26.524 23.2 26.728 23.026 26.932 22.882C27.148 22.738 27.304 22.642 27.4 22.594C27.28 22.618 27.136 22.69 26.968 22.81C26.8 22.93 26.632 23.062 26.464 23.206C26.308 23.338 26.17 23.458 26.05 23.566C25.942 23.674 25.882 23.734 25.87 23.746C25.594 23.998 25.438 24.196 25.402 24.34C25.402 24.748 25.306 24.952 25.114 24.952C25.006 24.952 24.886 24.892 24.754 24.772C24.634 24.64 24.526 24.478 24.43 24.286C24.346 24.082 24.304 23.884 24.304 23.692C24.304 23.584 24.322 23.476 24.358 23.368C24.43 23.164 24.61 22.912 24.898 22.612C25.186 22.312 25.552 22.018 25.996 21.73C26.44 21.442 26.92 21.202 27.436 21.01C27.964 20.806 28.492 20.704 29.02 20.704C29.284 20.704 29.566 20.77 29.866 20.902C30.178 21.034 30.466 21.214 30.73 21.442C31.006 21.658 31.228 21.91 31.396 22.198C31.576 22.474 31.666 22.768 31.666 23.08C31.666 23.212 31.648 23.344 31.612 23.476C31.588 23.5 31.576 23.518 31.576 23.53C31.456 23.842 31.222 24.118 30.874 24.358C30.526 24.586 30.16 24.784 29.776 24.952C29.752 24.964 29.722 24.976 29.686 24.988L29.776 24.952C30.16 24.772 30.514 24.562 30.838 24.322C31.162 24.082 31.396 23.83 31.54 23.566C31.312 23.878 31.018 24.142 30.658 24.358C30.31 24.562 29.968 24.73 29.632 24.862C29.164 25.054 28.696 25.216 28.228 25.348C27.76 25.48 27.34 25.582 26.968 25.654C26.608 25.726 26.338 25.768 26.158 25.78H26.086C26.086 25.792 26.128 25.804 26.212 25.816C26.296 25.816 26.38 25.816 26.464 25.816C26.488 25.816 26.518 25.816 26.554 25.816C26.602 25.816 26.65 25.81 26.698 25.798H26.536C26.812 25.738 27.196 25.666 27.688 25.582C28.18 25.486 28.678 25.348 29.182 25.168C28.918 25.264 28.672 25.354 28.444 25.438C28.228 25.51 28.036 25.558 27.868 25.582C27.652 25.63 27.442 25.672 27.238 25.708C27.034 25.744 26.854 25.774 26.698 25.798C27.094 25.81 27.496 25.9 27.904 26.068C28.324 26.224 28.678 26.452 28.966 26.752C29.254 27.052 29.398 27.436 29.398 27.904C29.398 28.132 29.356 28.336 29.272 28.516L29.326 28.264C29.086 28.816 28.738 29.284 28.282 29.668C28.51 29.5 28.708 29.326 28.876 29.146C29.056 28.954 29.188 28.744 29.272 28.516C29.176 28.852 28.99 29.152 28.714 29.416C28.438 29.668 28.12 29.89 27.76 30.082C27.412 30.262 27.064 30.412 26.716 30.532C26.38 30.64 26.104 30.712 25.888 30.748C26.2 30.664 26.506 30.568 26.806 30.46C27.118 30.34 27.406 30.202 27.67 30.046H27.634C26.914 30.322 26.242 30.526 25.618 30.658C25.006 30.79 24.568 30.856 24.304 30.856C24.232 30.856 24.196 30.868 24.196 30.892C24.196 30.928 24.28 30.958 24.448 30.982C24.604 30.982 24.802 30.964 25.042 30.928C25.282 30.88 25.534 30.832 25.798 30.784C25.462 30.88 25.132 30.952 24.808 31C24.496 31.048 24.22 31.072 23.98 31.072ZM29.182 25.168L29.524 25.042C29.476 25.066 29.422 25.09 29.362 25.114C29.302 25.126 29.242 25.144 29.182 25.168ZM27.832 29.956C27.988 29.872 28.12 29.788 28.228 29.704C28.168 29.752 28.102 29.794 28.03 29.83C27.97 29.866 27.904 29.908 27.832 29.956ZM25.798 30.784L25.888 30.748L25.87 30.766L25.798 30.784Z" fill="white"/>
</svg>
