<svg width="50" height="50" viewBox="0 0 50 50" fill="none" xmlns="http://www.w3.org/2000/svg">
<rect width="50" height="50" rx="25" fill="#F7941D"/>
<path d="M22.522 31.252C22.414 31.252 22.3 31.174 22.18 31.018C22.072 30.874 21.982 30.706 21.91 30.514C21.826 30.31 21.784 30.148 21.784 30.028C21.784 29.86 21.886 29.698 22.09 29.542C22.306 29.374 22.684 29.14 23.224 28.84C23.836 28.492 24.52 28.078 25.276 27.598C26.044 27.118 26.794 26.596 27.526 26.032C28.27 25.456 28.912 24.868 29.452 24.268C29.764 23.92 30.016 23.578 30.208 23.242C30.412 22.894 30.514 22.606 30.514 22.378C30.514 22.018 30.274 21.838 29.794 21.838C29.47 21.838 29.05 21.916 28.534 22.072C27.994 22.24 27.478 22.474 26.986 22.774C26.494 23.074 26.092 23.374 25.78 23.674C25.468 23.962 25.288 24.184 25.24 24.34C25.24 24.748 25.144 24.952 24.952 24.952C24.844 24.952 24.724 24.892 24.592 24.772C24.472 24.64 24.364 24.478 24.268 24.286C24.184 24.082 24.142 23.884 24.142 23.692C24.142 23.584 24.16 23.476 24.196 23.368C24.268 23.164 24.448 22.912 24.736 22.612C25.024 22.312 25.39 22.018 25.834 21.73C26.278 21.442 26.758 21.202 27.274 21.01C27.802 20.806 28.33 20.704 28.858 20.704C29.122 20.704 29.404 20.77 29.704 20.902C30.016 21.034 30.304 21.214 30.568 21.442C30.844 21.658 31.066 21.91 31.234 22.198C31.414 22.474 31.504 22.768 31.504 23.08C31.504 23.272 31.456 23.494 31.36 23.746C31.396 23.638 31.414 23.53 31.414 23.422C31.198 23.938 30.88 24.436 30.46 24.916C30.04 25.384 29.578 25.822 29.074 26.23C28.57 26.638 28.09 26.998 27.634 27.31C27.178 27.61 26.806 27.844 26.518 28.012C26.326 28.132 26.08 28.288 25.78 28.48C25.48 28.66 25.174 28.84 24.862 29.02C25.642 28.6 26.374 28.18 27.058 27.76C27.742 27.328 28.354 26.902 28.894 26.482L28.354 26.95C28.426 26.902 28.564 26.806 28.768 26.662C28.972 26.518 29.17 26.374 29.362 26.23C29.566 26.086 29.692 26.002 29.74 25.978C29.584 26.122 29.338 26.314 29.002 26.554C28.666 26.794 28.288 27.052 27.868 27.328C27.448 27.604 27.028 27.868 26.608 28.12C26.176 28.384 25.792 28.594 25.456 28.75C25.12 28.906 24.826 29.05 24.574 29.182L24.862 29.02L24.448 29.236L24.394 29.272L24.574 29.182C24.382 29.29 24.208 29.392 24.052 29.488C23.908 29.572 23.788 29.632 23.692 29.668C24.064 29.608 24.436 29.56 24.808 29.524C25.192 29.488 25.57 29.47 25.942 29.47C26.29 29.47 26.704 29.494 27.184 29.542C27.664 29.578 28.072 29.638 28.408 29.722C28.444 29.734 28.558 29.758 28.75 29.794C28.942 29.83 29.092 29.878 29.2 29.938C29.116 29.914 29.032 29.896 28.948 29.884C28.864 29.86 28.84 29.86 28.876 29.884C28.948 29.932 29.02 29.998 29.092 30.082C29.164 30.154 29.188 30.214 29.164 30.262C29.092 30.238 29.05 30.226 29.038 30.226C28.99 30.226 28.948 30.244 28.912 30.28C28.876 30.304 28.822 30.31 28.75 30.298L28.48 30.316C28.144 30.316 27.82 30.316 27.508 30.316C27.208 30.304 26.908 30.298 26.608 30.298C26.032 30.298 25.474 30.34 24.934 30.424C24.394 30.496 23.824 30.67 23.224 30.946C23.104 31.006 22.984 31.072 22.864 31.144C22.744 31.216 22.63 31.252 22.522 31.252ZM31.306 23.89L31.342 23.782C31.342 23.806 31.33 23.842 31.306 23.89ZM31.036 24.34L31.108 24.232C31.084 24.28 31.06 24.316 31.036 24.34ZM29.2 26.212C29.512 25.948 29.83 25.66 30.154 25.348C30.478 25.036 30.748 24.73 30.964 24.43L30.982 24.412L31.018 24.358C31.006 24.382 30.994 24.4 30.982 24.412C30.994 24.4 30.988 24.406 30.964 24.43C30.556 25.006 29.968 25.6 29.2 26.212Z" fill="white"/>
</svg>
